<?xml version="1.0" encoding="UTF-8" standalone="no"?>
<svg
   width="64px"
   height="64px"
   viewBox="0 0 64 64"
   aria-hidden="true"
   role="img"
   class="iconify iconify--emojione"
   preserveAspectRatio="xMidYMid meet"
   version="1.1"
   id="svg34"
   sodipodi:docname="pinguin.svg"
   xml:space="preserve"
   inkscape:version="1.2.1 (9c6d41e410, 2022-07-14)"
   inkscape:export-filename="pinguin.png"
   inkscape:export-xdpi="1536"
   inkscape:export-ydpi="1536"
   xmlns:inkscape="http://www.inkscape.org/namespaces/inkscape"
   xmlns:sodipodi="http://sodipodi.sourceforge.net/DTD/sodipodi-0.dtd"
   xmlns="http://www.w3.org/2000/svg"
   xmlns:svg="http://www.w3.org/2000/svg"><defs
     id="defs38"><rect
       id="rect101"
       width="1231.018"
       height="630.593"
       x="-576.462"
       y="149.707" /></defs><sodipodi:namedview
     id="namedview36"
     pagecolor="#ffffff"
     bordercolor="#000000"
     borderopacity="0.25"
     inkscape:showpageshadow="2"
     inkscape:pageopacity="0.0"
     inkscape:pagecheckerboard="0"
     inkscape:deskcolor="#d1d1d1"
     showgrid="false"
     inkscape:zoom="7.375"
     inkscape:cx="32.338983"
     inkscape:cy="35.864407"
     inkscape:window-width="1368"
     inkscape:window-height="842"
     inkscape:window-x="-6"
     inkscape:window-y="-6"
     inkscape:window-maximized="1"
     inkscape:current-layer="svg34" /><g
     fill="#e08828"
     id="g6"><path
       d="M26.3 60.5c-.8 0-2.6.7-3.2.1c-.8-.8 0-4.6 0-4.6h-2.3s.8 3.8 0 4.6c-.6.5-2.4-.1-3.2-.1c-2 0-3.7 1.5-3.7 1.5h16c.1 0-1.5-1.5-3.6-1.5"
       id="path2" /><path
       d="M46.3 60.5c-.8 0-2.6.7-3.2.1c-.8-.8 0-4.6 0-4.6h-2.3s.8 3.8 0 4.6c-.6.5-2.4-.1-3.2-.1c-2 0-3.7 1.5-3.7 1.5h16c.1 0-1.5-1.5-3.6-1.5"
       id="path4" /></g><g
     fill="#3e4347"
     id="g14"><path
       d="M10.4 27C-.4 33.7 1.7 43 3.3 41.9C20 29.7 24.2 18.5 10.4 27z"
       id="path8" /><path
       d="M53.6 27c-13.8-8.5-9.6 2.7 7.1 14.9c1.6 1.1 3.7-8.2-7.1-14.9"
       id="path10" /><path
       d="M48 17.5C48 8.9 40.8 2 32 2S16 8.9 16 17.5c0 11.6-4 15.5-4 23.2C12 51.3 21 60 32 60s20-8.7 20-19.3c0-7.7-4-11.6-4-23.2"
       id="path12" /></g><path
     d="M44 18.8c0-12.4-10.1-10-10.1-.7h-3.7C30.1 8.8 20 6.4 20 18.8c0 9.7-4 15.7-4 22.1C16 52.5 23.7 58 32 58s16-5.6 16-17.1c0-6.4-4-12.4-4-22.1"
     fill="#fff"
     id="path16" /><g
     fill="#3e4347"
     id="g22"><path
       d="M41 17c0 1.7-.9 3-2 3s-2-1.3-2-3s.9-3 2-3s2 1.3 2 3"
       id="path18" /><path
       d="M27 17c0 1.7-.9 3-2 3s-2-1.3-2-3s.9-3 2-3s2 1.3 2 3"
       id="path20" /></g><path
     d="M28 22h8c0 2.5-1.8 4.6-4 4.6s-4-2-4-4.6"
     fill="#e08828"
     id="path24" /><path
     d="M37 22.3l-5 1.2l-5-1.2c0-3.2 2.2-5.7 5-5.7s5 2.6 5 5.7"
     fill="#f29a2e"
     id="path26" /><g
     fill="#3e4347"
     id="g32"><path
       d="M33.7 17.8c.3.3.4.7.3.9c-.1.2-.5 0-.8-.3c-.3-.3-.4-.7-.3-.9c.2-.1.6 0 .8.3"
       id="path28" /><path
       d="M30.3 17.8c-.3.3-.4.7-.3.9c.1.2.5 0 .8-.3c.3-.3.4-.7.3-.9c-.2-.1-.6 0-.8.3"
       id="path30" /></g><path
     style="fill:#1a1a37;fill-opacity:1;stroke-width:0.019596"
     id="path94"
     d="m 31.788364,33.401 c -0.438556,0 -0.866248,0.0092 -1.005973,0.02721 -0.699386,0.08994 -1.289856,0.291441 -1.988982,0.67874 -1.119171,0.61999 -2.097547,1.623447 -2.785267,2.856652 -0.864226,1.54972 -1.180228,3.178034 -0.919299,4.737016 0.164366,0.982024 0.472023,1.713008 1.139267,2.706855 0.222728,0.331747 0.331579,0.469869 0.685142,0.869394 0.409917,0.46321 0.772069,0.786859 1.181632,1.056009 0.808351,0.531222 1.61592,0.842279 2.676481,1.030889 v 0 c 0.163076,0.029 0.317531,0.03541 0.892852,0.03709 0.819833,0.0023 1.175582,-0.0224 1.683952,-0.11739 0.799949,-0.149481 1.608228,-0.469604 2.411576,-0.955085 0.936522,-0.56596 1.730604,-1.357108 2.281022,-2.272611 0.07331,-0.121942 0.130186,-0.224085 0.126382,-0.226983 -0.03278,-0.02502 -2.685513,-1.501101 -2.69769,-1.501101 -0.0088,0 -0.03616,0.03581 -0.06074,0.07957 -0.168117,0.299128 -0.655279,0.834048 -0.971694,1.06696 -1.076349,0.792302 -2.391369,1.00431 -3.632753,0.585696 -1.247408,-0.420623 -2.21908,-1.465784 -2.540095,-2.732179 -0.09117,-0.359645 -0.11414,-0.553612 -0.114901,-0.969395 -0.0012,-0.673621 0.112849,-1.177794 0.395117,-1.746865 0.670456,-1.351691 2.013876,-2.185375 3.521541,-2.185375 1.05612,0 2.031566,0.401726 2.77133,1.141347 0.202258,0.202222 0.486265,0.562497 0.598498,0.759226 0.03198,0.05604 0.06362,0.0996 0.07034,0.09679 0.0066,-0.0028 0.599954,-0.334565 1.31831,-0.737219 0.846506,-0.474487 1.301375,-0.739954 1.292655,-0.754436 -0.426849,-0.709046 -1.050335,-1.429441 -1.691062,-1.953931 -0.547047,-0.447807 -1.285892,-0.876927 -1.968146,-1.143098 -0.61101,-0.238384 -1.072293,-0.355909 -1.598294,-0.407199 -0.183215,-0.01788 -0.632645,-0.02669 -1.071201,-0.02657 z m 1.988939,6.947485 c -0.928683,0 -1.683284,0.0052 -1.676891,0.01163 0.0063,0.0063 0.759622,0.446891 1.673824,0.978871 0.914203,0.531978 1.668793,0.967655 1.676876,0.968163 0.0081,4.79e-4 0.0147,-0.439984 0.0147,-0.978871 v -0.979797 z" /></svg>
