<?xml version="1.0" standalone="no"?>
<!DOCTYPE svg PUBLIC "-//W3C//DTD SVG 20010904//EN"
 "http://www.w3.org/TR/2001/REC-SVG-20010904/DTD/svg10.dtd">
<svg version="1.0" xmlns="http://www.w3.org/2000/svg"
 width="1024.000000pt" height="1024.000000pt" viewBox="0 0 1024.000000 1024.000000"
 preserveAspectRatio="xMidYMid meet">
<metadata>
Created by potrace 1.14, written by Peter Selinger 2001-2017
</metadata>
<g transform="translate(0.000000,1024.000000) scale(0.100000,-0.100000)"
fill="#000000" stroke="none">
<path d="M4785 10229 c-1357 -91 -2619 -715 -3515 -1736 -1217 -1387 -1593
-3333 -979 -5073 801 -2269 3073 -3675 5460 -3380 1419 176 2700 939 3533
2103 496 693 812 1506 916 2351 121 990 -46 1982 -485 2881 -757 1549 -2256
2615 -3969 2825 -315 39 -663 49 -961 29z m795 -1298 c485 -63 930 -205 1351
-431 166 -89 438 -269 584 -387 222 -179 497 -465 669 -696 85 -115 220 -317
250 -374 l16 -32 -67 -39 c-110 -64 -1199 -674 -1305 -731 l-97 -52 -54 83
c-347 535 -885 888 -1497 982 -779 119 -1568 -200 -2051 -830 -354 -461 -506
-1077 -409 -1659 86 -517 364 -994 772 -1324 338 -273 751 -438 1180 -472 728
-58 1419 243 1875 817 77 98 173 241 173 260 0 5 -392 236 -871 514 -479 278
-894 520 -922 537 l-52 33 928 0 927 0 0 -537 0 -538 38 -21 c118 -65 1308
-733 1365 -767 l67 -40 -31 -56 c-55 -98 -207 -315 -317 -453 -122 -153 -433
-468 -572 -579 -555 -445 -1155 -708 -1870 -820 -153 -24 -546 -43 -735 -36
-372 15 -850 116 -1200 254 -658 260 -1196 658 -1640 1213 -421 526 -726 1270
-794 1939 -14 128 -14 696 -1 852 12 142 65 412 120 614 139 502 394 994 723
1395 192 234 523 541 772 716 556 392 1271 645 1930 684 220 13 567 4 745 -19z"/>
</g>
</svg>
