<?xml version="1.0" encoding="UTF-8" standalone="no"?>
<svg
   id="svg8"
   width="1289.4308mm"
   height="500mm"
   version="1.1"
   viewBox="0 0 1289.4309 500"
   sodipodi:docname="logo_lg_blue.svg"
   inkscape:version="1.1.2 (0a00cf5339, 2022-02-04, custom)"
   inkscape:export-filename="logo_lg_blue.webp"
   inkscape:export-xdpi="4.3730927"
   inkscape:export-ydpi="4.3730927"
   xmlns:inkscape="http://www.inkscape.org/namespaces/inkscape"
   xmlns:sodipodi="http://sodipodi.sourceforge.net/DTD/sodipodi-0.dtd"
   xmlns="http://www.w3.org/2000/svg"
   xmlns:svg="http://www.w3.org/2000/svg"
   xmlns:rdf="http://www.w3.org/1999/02/22-rdf-syntax-ns#"
   xmlns:cc="http://creativecommons.org/ns#"
   xmlns:dc="http://purl.org/dc/elements/1.1/">
  <sodipodi:namedview
     fit-margin-bottom="0"
     fit-margin-right="0"
     fit-margin-left="0"
     fit-margin-top="0"
     inkscape:document-rotation="0"
     pagecolor="#ffffff"
     bordercolor="#666666"
     borderopacity="1"
     objecttolerance="10"
     gridtolerance="10"
     guidetolerance="10"
     inkscape:pageopacity="0"
     inkscape:pageshadow="2"
     inkscape:window-width="1355"
     inkscape:window-height="877"
     id="namedview13"
     showgrid="false"
     inkscape:zoom="0.049579465"
     inkscape:cx="1613.5713"
     inkscape:cy="1774.9284"
     inkscape:window-x="0"
     inkscape:window-y="0"
     inkscape:window-maximized="0"
     inkscape:current-layer="text99"
     inkscape:pagecheckerboard="0"
     inkscape:document-units="mm" />
  <defs
     id="defs2">
    <rect
       id="rect101"
       width="1231.0179"
       height="630.59302"
       x="-576.46198"
       y="149.707" />
  </defs>
  <metadata
     id="metadata5">
    <rdf:RDF>
      <cc:Work
         rdf:about="">
        <dc:format>image/svg+xml</dc:format>
        <dc:type
           rdf:resource="http://purl.org/dc/dcmitype/StillImage" />
      </cc:Work>
    </rdf:RDF>
  </metadata>
  <g
     id="layer1"
     transform="translate(1042.643,-148.59066)"
     inkscape:export-xdpi="14.6812"
     inkscape:export-ydpi="14.6812">
    <path
       style="fill:#1a1a37;fill-opacity:1;stroke-width:0.699855;stroke:none"
       id="path94"
       d="m -800.20189,148.59075 c -15.66268,0.005 -30.93737,0.32979 -35.92752,0.97152 -24.97802,3.21209 -46.06623,10.40832 -71.03494,24.24038 -39.97029,22.14261 -74.9122,57.98028 -99.47355,102.02323 -30.8652,55.34705 -42.151,113.50098 -32.8321,169.17882 5.8702,35.07216 16.8579,61.17871 40.68799,96.67317 7.95457,11.84812 11.84213,16.78099 24.46931,31.04978 14.63989,16.54318 27.57386,28.10203 42.20104,37.7145 28.86973,18.97219 57.71137,30.08127 95.58848,36.81738 v 10e-4 c 5.82412,1.03579 11.34034,1.26458 31.88746,1.32448 29.27973,0.0855 41.98501,-0.79986 60.14103,-4.19251 28.56955,-5.3386 57.43662,-16.77149 86.12757,-34.11008 33.44712,-20.21282 61.80706,-48.4681 81.46479,-81.16454 2.61834,-4.35506 4.64965,-8.00301 4.51392,-8.10649 -1.17086,-0.89357 -95.91117,-53.61068 -96.34604,-53.61068 -0.31474,0 -1.29111,1.27902 -2.16939,2.84169 -6.00422,10.68316 -23.40278,29.78738 -34.7033,38.10569 -38.44099,28.29642 -85.40586,35.86808 -129.74092,20.91759 -44.55018,-15.02312 -79.25266,-52.35019 -90.71746,-97.57855 -3.25589,-12.8444 -4.07642,-19.7718 -4.10362,-34.62114 -0.0427,-24.05789 4.0303,-42.064 14.11128,-62.38792 23.94487,-48.27458 71.92399,-78.04898 125.76906,-78.04898 37.71851,0 72.5558,14.34737 98.97588,40.76237 7.22351,7.22214 17.36655,20.0891 21.37491,27.11514 1.14192,2.00157 2.27232,3.55695 2.51201,3.45663 0.23966,-0.1005 21.42683,-11.94867 47.08239,-26.32914 30.23246,-16.94596 46.47755,-26.42693 46.16617,-26.94409 -15.24453,-25.3227 -37.5117,-51.05103 -60.39477,-69.78282 -19.53739,-15.99307 -45.92463,-31.3187 -70.29079,-40.8249 -21.82173,-8.51359 -38.29612,-12.71106 -57.08179,-14.54278 -6.5434,-0.63855 -22.59441,-0.95366 -38.2571,-0.94878 z m 71.03339,248.12387 c -33.16717,0 -60.11718,0.18715 -59.88884,0.41548 0.22842,0.22842 27.12928,15.96042 59.77929,34.95962 32.65006,18.9992 59.59962,34.55902 59.88834,34.57722 0.28884,0.0183 0.52504,-15.7137 0.52504,-34.95962 v -34.9927 z" />
    <g
       aria-label="CG"
       transform="matrix(1.3592448,0,0,1.3592448,227.35348,-182.72846)"
       id="text99"
       style="font-size:499.798px;line-height:1.25;white-space:pre;shape-inside:url(#rect101);fill:#1a1a37">
      <path
         d="m -400.53399,246.60546 q 64.47394,0 111.95475,40.98344 l -47.48081,55.97737 q -14.99394,-10.99555 -29.48808,-16.99313 -13.99435,-5.99757 -29.98788,-5.99757 -30.48768,0 -47.48081,27.48889 -16.49334,27.48889 -16.49334,81.46707 0,53.97819 16.99313,80.96728 16.99314,26.48929 48.48041,26.48929 16.99313,0 31.48728,-6.99717 14.99394,-6.99717 32.98666,-20.99152 l 44.98182,56.97698 q -20.99151,20.99151 -50.97939,34.98586 -29.48808,13.49454 -63.47435,13.49454 -51.47919,0 -88.96404,-20.99151 -37.48485,-21.49132 -57.97657,-62.97455 -20.49172,-41.48324 -20.49172,-100.9592 0,-56.97697 20.99152,-97.96041 20.99151,-41.48323 58.47636,-62.97455 37.48485,-21.99111 86.46506,-21.99111 z"
         style="font-weight:900;font-family:'Fira Sans';-inkscape-font-specification:'Fira Sans Heavy';shape-inside:url(#rect101)"
         id="path2883" />
      <path
         d="m -109.15218,246.60546 q 37.48485,0 68.472326,12.49495 31.4872744,12.49495 54.977781,32.98667 l -49.979801,51.97899 Q -54.1744,330.57153 -69.16834,324.57395 q -14.99394,-5.99758 -33.98626,-5.99758 -36.48526,0 -55.97738,27.98869 -19.49212,27.48889 -19.49212,83.96607 0,42.48283 5.99757,66.97293 5.99758,23.9903 18.49253,33.98626 12.99475,9.99596 33.98626,9.99596 18.49253,0 35.485662,-8.49656 v -63.47435 h -34.985862 l -9.49616,-69.47192 H 14.297927 v 174.4295 q -27.488891,18.99233 -62.974549,29.48808 -35.485658,10.49576 -68.472328,10.49576 -85.46546,0 -126.44889,-46.48121 -40.98344,-46.98101 -40.98344,-137.94425 0,-57.47677 22.49091,-98.96001 22.49091,-41.48323 62.47475,-62.97454 39.98384,-21.49132 90.46344,-21.49132 z"
         style="font-weight:900;font-family:'Fira Sans';-inkscape-font-specification:'Fira Sans Heavy';shape-inside:url(#rect101)"
         id="path2885" />
    </g>
  </g>
</svg>
