<svg xmlns="http://www.w3.org/2000/svg" width="168" height="59.24339" viewBox="0 0 168 59.24339"><path d="M162.204,0H5.79563A5.79872,5.79872,0,0,0,0,5.79563V53.44776a5.79872,5.79872,0,0,0,5.79563,5.79563H162.204A5.79925,5.79925,0,0,0,168,53.44776V5.79563A5.79925,5.79925,0,0,0,162.204,0Zm3.864,53.44776a3.86611,3.86611,0,0,1-3.864,3.864H5.79563a3.86634,3.86634,0,0,1-3.864-3.864V5.79563a3.86634,3.86634,0,0,1,3.864-3.864H162.204a3.86611,3.86611,0,0,1,3.864,3.864Z" style="fill:#fff"/><path d="M162.204,1.93164H5.79563a3.86634,3.86634,0,0,0-3.864,3.864V53.44776a3.86634,3.86634,0,0,0,3.864,3.864H162.204a3.86611,3.86611,0,0,0,3.864-3.864V5.79563A3.86611,3.86611,0,0,0,162.204,1.93164ZM5.79563,55.37976a1.933,1.933,0,0,1-1.932-1.932V29.6217H51.01512a5.79872,5.79872,0,0,1,5.79564,5.79563V49.58412a5.79872,5.79872,0,0,0,5.79563,5.79564ZM164.136,29.6217H62.60639a5.79872,5.79872,0,0,1-5.79563-5.79564V9.65927a5.79872,5.79872,0,0,0-5.79564-5.79563H162.204a1.933,1.933,0,0,1,1.932,1.932Z"/><path d="M62.60639,55.37976H5.79563a1.933,1.933,0,0,1-1.932-1.932V29.6217H51.01512a5.79872,5.79872,0,0,1,5.79564,5.79563V49.58412A5.79872,5.79872,0,0,0,62.60639,55.37976Z" style="fill:#fff"/><path d="M164.136,5.79563V29.6217H62.60639a5.79872,5.79872,0,0,1-5.79563-5.79564V9.65927a5.79872,5.79872,0,0,0-5.79564-5.79563H162.204A1.933,1.933,0,0,1,164.136,5.79563Z" style="fill:#fff"/><path d="M62.46243,17.90428a3.28806,3.28806,0,0,1,6.57582,0,3.288,3.288,0,0,1-6.57582,0Zm4.87715,0a1.60191,1.60191,0,1,0-3.17883,0,1.60351,1.60351,0,1,0,3.17883,0Z"/><path d="M74.41811,21.01893V17.23565c0-.86225-.451-1.133-1.14631-1.133a1.79583,1.79583,0,0,0-1.4149.72073v4.19555H70.20931v-8.5843H71.8569V15.6013a2.8846,2.8846,0,0,1,2.17512-.95341,1.7908,1.7908,0,0,1,2.02044,1.95676v4.41428Z"/><path d="M81.67588,21.01893V17.26076a1.00886,1.00886,0,0,0-1.146-1.15811,1.8238,1.8238,0,0,0-1.416.72073v4.19555H77.47888V14.80266H79.114v.79864a2.90821,2.90821,0,0,1,2.17655-.95341,1.81292,1.81292,0,0,1,2.0326,1.9823v4.38874Z"/><path d="M84.48157,17.90428a3.17107,3.17107,0,0,1,3.21661-3.25639,3.10641,3.10641,0,0,1,3.115,3.41151v.38573H86.191a1.66923,1.66923,0,0,0,1.79119,1.39051,2.60132,2.60132,0,0,0,1.6473-.60618l.734,1.082a3.87518,3.87518,0,0,1-2.56115.86261A3.14829,3.14829,0,0,1,84.48157,17.90428Zm3.21661-1.917a1.43164,1.43164,0,0,0-1.51794,1.32483h3.06249A1.4236,1.4236,0,0,0,87.69818,15.98731Z"/><path d="M100.9102,21.01893l-1.68572-3.05H97.88506v3.05H96.05853v-8.5843h4.01525a2.68362,2.68362,0,0,1,2.89628,2.76663,2.48257,2.48257,0,0,1-1.89214,2.54862l1.9438,3.26905Zm.17959-5.83062a1.159,1.159,0,0,0-1.27451-1.14516H97.88506v2.3173h1.93022A1.164,1.164,0,0,0,101.08979,15.18831Z"/><path d="M108.452,21.01893v-.79835a2.39418,2.39418,0,0,1-1.918.95348c-1.55672,0-2.755-1.184-2.755-3.26978,0-2.01964,1.17106-3.25639,2.755-3.25639a2.37539,2.37539,0,0,1,1.918.95341v-.79864h1.64758v6.21627Zm0-2.00676V16.82338a1.7873,1.7873,0,0,0-1.403-.72073,1.62058,1.62058,0,0,0-1.58233,1.80163,1.62543,1.62543,0,0,0,1.58233,1.81566A1.77687,1.77687,0,0,0,108.452,19.01217Z"/><path d="M111.16584,20.20841l.70742-1.18365a3.52507,3.52507,0,0,0,2.14965.86182c.70821,0,1.04257-.27,1.04257-.65712,0-1.01558-3.681-.17923-3.681-2.62481,0-1.04249.90175-1.95676,2.54933-1.95676a3.95869,3.95869,0,0,1,2.4966.85031l-.65575,1.15782a2.68248,2.68248,0,0,0-1.84085-.72037c-.59286,0-.97823.2578-.97823.60546,0,.91284,3.69349.14181,3.69349,2.65065,0,1.14552-.97816,1.9823-2.70266,1.9823A4.18311,4.18311,0,0,1,111.16584,20.20841Z"/><path d="M117.43379,20.20841l.70748-1.18365a3.51789,3.51789,0,0,0,2.1493.86182c.70848,0,1.04184-.27,1.04184-.65712,0-1.01558-3.68061-.17923-3.68061-2.62481,0-1.04249.9021-1.95676,2.54969-1.95676a3.96183,3.96183,0,0,1,2.49688.85031l-.65576,1.15782a2.68657,2.68657,0,0,0-1.84112-.72037c-.59323,0-.9786.2578-.9786.60546,0,.91284,3.69421.14181,3.69421,2.65065,0,1.14552-.979,1.9823-2.70338,1.9823A4.17993,4.17993,0,0,1,117.43379,20.20841Z"/><path d="M124.00925,13.15536a.97213.97213,0,0,1,1.94422,0,.97213.97213,0,1,1-1.94422,0Zm.15511,7.86357V14.80266h1.635v6.21627Z"/><path d="M126.90581,20.20841l.70713-1.18365a3.52328,3.52328,0,0,0,2.15.86182c.70741,0,1.04177-.27,1.04177-.65712,0-1.01558-3.68126-.17923-3.68126-2.62481,0-1.04249.90032-1.95676,2.54934-1.95676a3.95889,3.95889,0,0,1,2.49588.85031l-.65683,1.15782a2.67231,2.67231,0,0,0-1.83905-.72037c-.59251,0-.97788.2578-.97788.60546,0,.91284,3.69277.14181,3.69277,2.65065,0,1.14552-.97716,1.9823-2.7023,1.9823A4.18292,4.18292,0,0,1,126.90581,20.20841Z"/><path d="M141.34578,21.01893V17.09412c0-.57927-.25923-.99147-.92687-.99147a1.65446,1.65446,0,0,0-1.28811.72073v4.19555h-1.64687V17.09412c0-.57927-.25851-.99147-.92686-.99147a1.69978,1.69978,0,0,0-1.28884.72073v4.19555H133.635V14.80266h1.63327v.79864a2.79163,2.79163,0,0,1,2.03576-.95341,1.64227,1.64227,0,0,1,1.72521,1.12076,2.66082,2.66082,0,0,1,2.136-1.12076,1.65953,1.65953,0,0,1,1.82754,1.87991v4.49113Z"/><path d="M148.55181,21.01893V20.2346a2.96357,2.96357,0,0,1-2.18944.93946,1.77976,1.77976,0,0,1-2.00677-1.95611V14.80266h1.63471V18.573a1.00018,1.00018,0,0,0,1.14588,1.147,1.83546,1.83546,0,0,0,1.41562-.70777V14.80266h1.63435v6.21627Z"/><path d="M151.29089,20.20841l.70921-1.18365a3.51437,3.51437,0,0,0,2.14929.86182c.70749,0,1.04285-.27,1.04285-.65712,0-1.01558-3.68125-.17923-3.68125-2.62481,0-1.04249.902-1.95676,2.54753-1.95676a3.95165,3.95165,0,0,1,2.49624.85031l-.6554,1.15782a2.67628,2.67628,0,0,0-1.84084-.72037c-.59179,0-.97752.2578-.97752.60546,0,.91284,3.69457.14181,3.69457,2.65065,0,1.14552-.97824,1.9823-2.703,1.9823A4.18777,4.18777,0,0,1,151.29089,20.20841Z"/><path d="M11.36453,45.52064l1.00406-1.42857a3.771,3.771,0,0,0,2.72821,1.17078c1.0163,0,1.49282-.45034,1.49282-.952,0-1.49354-4.94211-.45069-4.94211-3.68161,0-1.42857,1.23538-2.61151,3.25682-2.61151a4.776,4.776,0,0,1,3.34547,1.19553l-1.01629,1.36461a3.68924,3.68924,0,0,0-2.49654-.93946c-.77245,0-1.20984.33543-1.20984.8493,0,1.35209,4.92917.43846,4.92917,3.64284,0,1.56974-1.13229,2.75439-3.43706,2.75439A4.95266,4.95266,0,0,1,11.36453,45.52064Z"/><path d="M19.35625,43.61627a3.16154,3.16154,0,0,1,3.29453-3.25754A2.89283,2.89283,0,0,1,25.109,41.47921l-1.068,1.0037a1.50678,1.50678,0,0,0-1.31116-.66935,1.81253,1.81253,0,0,0,0,3.61657,1.54438,1.54438,0,0,0,1.31116-.6823l1.068,1.00406a2.89576,2.89576,0,0,1-2.45818,1.133A3.16355,3.16355,0,0,1,19.35625,43.61627Z"/><path d="M30.28339,46.72977V42.9462c0-.86225-.45105-1.13264-1.14595-1.13264a1.80223,1.80223,0,0,0-1.41626.72108v4.19513h-1.6473V38.1459h1.6473v3.16523a2.88689,2.88689,0,0,1,2.17548-.9524A1.79135,1.79135,0,0,1,31.9181,42.3152v4.41457Z"/><path d="M37.50094,46.72977v-.78462a2.94949,2.94949,0,0,1-2.186.93974,1.77981,1.77981,0,0,1-2.00742-1.95675V40.51321h1.63363V44.285a.99928.99928,0,0,0,1.14524,1.14516,1.8264,1.8264,0,0,0,1.41454-.707V40.51321h1.63571v6.21656Z"/><path d="M40.53868,45.1737V38.1459h1.6347V44.735c0,.39968.20678.69518.56633.69518a.82134.82134,0,0,0,.56631-.19282l.34724,1.24826a2.04467,2.04467,0,0,1-1.365.39932A1.54722,1.54722,0,0,1,40.53868,45.1737Z"/><path d="M44.15426,43.61627a3.17252,3.17252,0,0,1,3.218-3.25754A3.10734,3.10734,0,0,1,50.48758,43.77V44.157H45.86723a1.66529,1.66529,0,0,0,1.78768,1.38879,2.59841,2.59841,0,0,0,1.6483-.60446l.73332,1.081a3.8772,3.8772,0,0,1-2.56221.86254A3.1481,3.1481,0,0,1,44.15426,43.61627Zm3.218-1.91805A1.4343,1.4343,0,0,0,45.85392,43.024h3.06292A1.42413,1.42413,0,0,0,47.37229,41.69822Z"/><path d="M11.361,19.84258l1.00406-1.42922a3.769,3.769,0,0,0,2.72821,1.17142c1.0163,0,1.4929-.44962,1.4929-.95276,0-1.49282-4.94218-.45-4.94218-3.68054,0-1.42893,1.23538-2.61222,3.25681-2.61222a4.76482,4.76482,0,0,1,3.34555,1.1976l-1.0163,1.36253a3.6863,3.6863,0,0,0-2.4966-.938c-.77246,0-1.20984.334-1.20984.84894,0,1.351,4.92916.43775,4.92916,3.64148,0,1.57109-1.13228,2.75511-3.43706,2.75511A4.95129,4.95129,0,0,1,11.361,19.84258Z" style="fill:#fff"/><path d="M19.35275,17.93713a3.161,3.161,0,0,1,3.29452-3.2564,2.88925,2.88925,0,0,1,2.45818,1.12077l-1.068,1.0037a1.50617,1.50617,0,0,0-1.31116-.66971,1.66235,1.66235,0,0,0-1.68851,1.80164,1.67354,1.67354,0,0,0,1.68851,1.81565,1.5447,1.5447,0,0,0,1.31116-.683l1.068,1.0045a2.89489,2.89489,0,0,1-2.45818,1.13264A3.16427,3.16427,0,0,1,19.35275,17.93713Z" style="fill:#fff"/><path d="M30.27989,21.05178V17.26849c0-.86225-.451-1.133-1.14588-1.133a1.8004,1.8004,0,0,0-1.41634.72073v4.19556H26.07038V12.46747h1.64729v3.16667a2.88361,2.88361,0,0,1,2.17549-.95341,1.79155,1.79155,0,0,1,2.02143,1.95676v4.41429Z" style="fill:#fff"/><path d="M37.49744,21.05178v-.78434a2.95314,2.95314,0,0,1-2.186.93946A1.77981,1.77981,0,0,1,33.304,19.25079V14.8355h1.63363v3.77033a1.0001,1.0001,0,0,0,1.14523,1.147,1.827,1.827,0,0,0,1.41455-.70777V14.8355h1.63578v6.21628Z" style="fill:#fff"/><path d="M40.53517,19.4957V12.46747h1.63471V19.0576c0,.39825.20685.69518.56632.69518a.82139.82139,0,0,0,.56632-.19354l.34731,1.24862a2.047,2.047,0,0,1-1.365.399A1.54771,1.54771,0,0,1,40.53517,19.4957Z" style="fill:#fff"/><path d="M44.15082,17.93713a3.17215,3.17215,0,0,1,3.218-3.2564,3.1074,3.1074,0,0,1,3.1153,3.41152V18.478H45.86373a1.66516,1.66516,0,0,0,1.78768,1.39051,2.59459,2.59459,0,0,0,1.6483-.60617l.73332,1.082a3.87337,3.87337,0,0,1-2.56222.86261A3.14876,3.14876,0,0,1,44.15082,17.93713Zm3.218-1.917A1.43421,1.43421,0,0,0,45.85042,17.345h3.06292A1.4238,1.4238,0,0,0,47.36878,16.02015Z" style="fill:#fff"/><path d="M71.5624,46.79166V42.86613c0-.57919-.25787-.99075-.92514-.99075a1.653,1.653,0,0,0-1.28984.72108v4.1952H67.70155V42.86613c0-.57919-.25786-.99075-.9265-.99075a1.69118,1.69118,0,0,0-1.28776.72108v4.1952H63.85187V40.575h1.63542V41.373a2.78634,2.78634,0,0,1,2.03367-.95233,1.64059,1.64059,0,0,1,1.72443,1.1204,2.66481,2.66481,0,0,1,2.13706-1.1204,1.66025,1.66025,0,0,1,1.82789,1.87955v4.49149Z" style="fill:#fff"/><path d="M74.48343,38.92773a.97179.97179,0,0,1,1.94353,0,.97179.97179,0,1,1-1.94353,0Zm.15377,7.86393V40.575h1.635v6.21663Z" style="fill:#fff"/><path d="M78.24018,45.23559v-3.231H77.21093V40.575h1.02925V38.87678h1.63434V40.575h1.2633V42.0046h-1.2633v2.79217c0,.39968.20678.69525.56733.69525a.82192.82192,0,0,0,.56632-.19289l.3473,1.24833a2.01953,2.01953,0,0,1-1.36425.39932A1.5477,1.5477,0,0,1,78.24018,45.23559Z" style="fill:#fff"/><path d="M85.95278,42.50559a4.358,4.358,0,0,1,4.58265-4.4404,3.89844,3.89844,0,0,1,3.57679,2.09864l-1.56967.77174a2.32138,2.32138,0,0,0-2.00712-1.24727,2.82061,2.82061,0,0,0,0,5.63637,2.32241,2.32241,0,0,0,2.00712-1.24762l1.56967.75814a3.92945,3.92945,0,0,1-3.57679,2.11159A4.36539,4.36539,0,0,1,85.95278,42.50559Z" style="fill:#fff"/><path d="M94.85885,43.67808a3.28793,3.28793,0,1,1,3.28157,3.2687A3.14925,3.14925,0,0,1,94.85885,43.67808Zm4.87714,0A1.603,1.603,0,1,0,98.14042,45.492,1.63359,1.63359,0,0,0,99.736,43.67808Z" style="fill:#fff"/><path d="M106.74984,46.79166V46.007a2.95518,2.95518,0,0,1-2.18772.93981,1.78179,1.78179,0,0,1-2.0092-1.95682V40.575H104.189v3.77176a.99916.99916,0,0,0,1.14559,1.14523,1.83147,1.83147,0,0,0,1.41526-.70713V40.575h1.63506v6.21663Z" style="fill:#fff"/><path d="M109.85082,46.79166V40.575h1.63435v.83742a2.7273,2.7273,0,0,1,1.98123-.99183v1.59621a2.13755,2.13755,0,0,0-.45-.03842,2.08,2.08,0,0,0-1.53125.70856v4.10469Z" style="fill:#fff"/><path d="M118.75682,46.79166v-.79728a2.39606,2.39606,0,0,1-1.918.9524c-1.55679,0-2.75547-1.18472-2.75547-3.2687,0-2.02107,1.17214-3.25746,2.75547-3.25746a2.3762,2.3762,0,0,1,1.918.95233V40.575h1.6473v6.21663Zm0-2.00677V42.59646a1.78282,1.78282,0,0,0-1.403-.72108,1.8243,1.8243,0,0,0,0,3.61664A1.77358,1.77358,0,0,0,118.75682,44.78489Z" style="fill:#fff"/><path d="M121.87039,48.38823l.73332-1.17106a2.52694,2.52694,0,0,0,1.94495.75915,1.52765,1.52765,0,0,0,1.72379-1.59586v-.6051a2.41434,2.41434,0,0,1-1.93064.96564c-1.54527,0-2.7408-1.08162-2.7408-3.15371,0-2.03367,1.17149-3.16667,2.7408-3.16667a2.38272,2.38272,0,0,1,1.93064.95233V40.575h1.63463v5.80543c0,2.35472-1.82717,2.93463-3.35842,2.93463A3.79043,3.79043,0,0,1,121.87039,48.38823Zm4.40206-3.79616V42.57092a1.8352,1.8352,0,0,0-1.40275-.69554,1.71718,1.71718,0,0,0,0,3.42375A1.85132,1.85132,0,0,0,126.27245,44.59207Z" style="fill:#fff"/><path d="M129.09038,43.67808a3.17209,3.17209,0,0,1,3.21732-3.25746,3.10619,3.10619,0,0,1,3.11458,3.41123v.38708h-4.62a1.66654,1.66654,0,0,0,1.78839,1.38872,2.601,2.601,0,0,0,1.6483-.60438l.733,1.0809a3.87525,3.87525,0,0,1-2.56085.86261A3.14814,3.14814,0,0,1,129.09038,43.67808Zm3.21732-1.918a1.43441,1.43441,0,0,0-1.519,1.3259H133.853A1.426,1.426,0,0,0,132.3077,41.76Z" style="fill:#fff"/></svg>